<?xml version="1.0" encoding="UTF-8" standalone="no"?>
<svg
   xmlns:dc="http://purl.org/dc/elements/1.1/"
   xmlns:cc="http://creativecommons.org/ns#"
   xmlns:rdf="http://www.w3.org/1999/02/22-rdf-syntax-ns#"
   xmlns:svg="http://www.w3.org/2000/svg"
   xmlns="http://www.w3.org/2000/svg"
   xmlns:sodipodi="http://sodipodi.sourceforge.net/DTD/sodipodi-0.dtd"
   xmlns:inkscape="http://www.inkscape.org/namespaces/inkscape"
   width="50"
   height="50"
   viewBox="0 0 50 50"
   version="1.1"
   id="svg10191"
   sodipodi:docname="clock.svg"
   style="fill:none"
   inkscape:version="0.92.3 (2405546, 2018-03-11)">
  <metadata
     id="metadata10195">
    <rdf:RDF>
      <cc:Work
         rdf:about="">
        <dc:format>image/svg+xml</dc:format>
        <dc:type
           rdf:resource="http://purl.org/dc/dcmitype/StillImage" />
        <dc:title></dc:title>
      </cc:Work>
    </rdf:RDF>
  </metadata>
  <sodipodi:namedview
     pagecolor="#ffffff"
     bordercolor="#666666"
     borderopacity="1"
     objecttolerance="10"
     gridtolerance="10"
     guidetolerance="10"
     inkscape:pageopacity="0"
     inkscape:pageshadow="2"
     inkscape:window-width="1920"
     inkscape:window-height="1032"
     id="namedview10193"
     showgrid="false"
     fit-margin-top="0"
     fit-margin-left="0"
     fit-margin-right="0"
     fit-margin-bottom="0"
     inkscape:zoom="8.137931"
     inkscape:cx="2.8065276"
     inkscape:cy="22.584123"
     inkscape:window-x="0"
     inkscape:window-y="27"
     inkscape:window-maximized="1"
     inkscape:current-layer="svg10191" />
  <g
     id="g10151"
     transform="translate(-4)">
    <rect
       x="4"
       width="50"
       height="50"
       rx="3"
       id="rect10149"
       y="0"
       style="fill:#4d7962" />
  </g>
  <g
     id="g10157"
     transform="translate(-4)">
    <path
       d="m 29,10 c -8.2735,0 -15,6.7265 -15,15 0,8.2734 6.7265,15 15,15 8.2735,0 15,-6.7266 15,-15 0,-8.2735 -6.7265,-15 -15,-15 z m 0,1.8182 c 7.2909,0 13.1818,5.891 13.1818,13.1818 0,7.2908 -5.8909,13.1818 -13.1818,13.1818 -7.2909,0 -13.1818,-5.891 -13.1818,-13.1818 0,-7.2908 5.8909,-13.1818 13.1818,-13.1818 z m 0,3.6363 c -0.5021,0 -0.9091,0.407 -0.9091,0.9091 V 25 c 0,0.251 0.1054,0.4747 0.2699,0.6392 l 5.4545,5.4688 c 0.3551,0.355 0.9376,0.355 1.2927,0 0.355,-0.3551 0.355,-0.9376 0,-1.2926 l -5.1989,-5.1847 v -8.2671 c 0,-0.5021 -0.407,-0.9091 -0.9091,-0.9091 z"
       id="path10153"
       inkscape:connector-curvature="0"
       style="fill:#def4e8" />
    <path
       d="m 33.6383,31.2845 3e-4,2e-4 c 0.4526,0.4527 1.1935,0.4527 1.6461,0 v 0 c 0.4527,-0.4526 0.4527,-1.1935 0,-1.6461 l -2e-4,-2e-4 -5.1254,-5.1115 v -8.1633 c 0,-0.6401 -0.5189,-1.1591 -1.1591,-1.1591 -0.6402,0 -1.1591,0.519 -1.1591,1.1591 V 25 c 0,0.3236 0.1363,0.6091 0.3431,0.816 z M 29,9.75 c -8.4116,0 -15.25,6.8385 -15.25,15.25 0,8.4115 6.8384,15.25 15.25,15.25 8.4116,0 15.25,-6.8385 15.25,-15.25 C 44.25,16.5885 37.4116,9.75 29,9.75 Z m 0,2.3182 c 7.1528,0 12.9318,5.779 12.9318,12.9318 0,7.1527 -5.779,12.9318 -12.9318,12.9318 -7.1528,0 -12.9318,-5.7791 -12.9318,-12.9318 0,-7.1528 5.779,-12.9318 12.9318,-12.9318 z"
       id="path10155"
       inkscape:connector-curvature="0"
       style="stroke:#def4e8;stroke-width:0.5" />
  </g>
  <defs
     id="defs10189" />
</svg>
