<?xml version="1.0" encoding="UTF-8" standalone="no"?>
<svg
   xmlns:dc="http://purl.org/dc/elements/1.1/"
   xmlns:cc="http://creativecommons.org/ns#"
   xmlns:rdf="http://www.w3.org/1999/02/22-rdf-syntax-ns#"
   xmlns:svg="http://www.w3.org/2000/svg"
   xmlns="http://www.w3.org/2000/svg"
   xmlns:sodipodi="http://sodipodi.sourceforge.net/DTD/sodipodi-0.dtd"
   xmlns:inkscape="http://www.inkscape.org/namespaces/inkscape"
   width="50"
   height="50"
   viewBox="0 0 50 50"
   version="1.1"
   id="svg10191"
   sodipodi:docname="shared.svg"
   style="fill:none"
   inkscape:version="0.92.3 (2405546, 2018-03-11)">
  <metadata
     id="metadata10195">
    <rdf:RDF>
      <cc:Work
         rdf:about="">
        <dc:format>image/svg+xml</dc:format>
        <dc:type
           rdf:resource="http://purl.org/dc/dcmitype/StillImage" />
        <dc:title></dc:title>
      </cc:Work>
    </rdf:RDF>
  </metadata>
  <sodipodi:namedview
     pagecolor="#ffffff"
     bordercolor="#666666"
     borderopacity="1"
     objecttolerance="10"
     gridtolerance="10"
     guidetolerance="10"
     inkscape:pageopacity="0"
     inkscape:pageshadow="2"
     inkscape:window-width="1920"
     inkscape:window-height="1032"
     id="namedview10193"
     showgrid="false"
     fit-margin-top="0"
     fit-margin-left="0"
     fit-margin-right="0"
     fit-margin-bottom="0"
     inkscape:zoom="8.137931"
     inkscape:cx="2.8065276"
     inkscape:cy="22.584123"
     inkscape:window-x="0"
     inkscape:window-y="27"
     inkscape:window-maximized="1"
     inkscape:current-layer="svg10191" />
  <g
     id="g10151"
     transform="translate(-4)">
    <rect
       x="4"
       width="50"
       height="50"
       rx="3"
       id="rect10149"
       y="0"
       style="fill:#4d7962" />
  </g>
  <defs
     id="defs10189" />
  <g
     transform="translate(-4)"
     id="g10859">
    <path
       d="m 37,26 c -0.69,0 -1.36,0.1 -2,0.28 -0.62,0.18 -1.2,0.44 -1.74,0.78 0.19,0.09 0.38,0.2 0.56,0.32 0.46,0.28 0.89,0.61 1.29,0.98 1.34,1.21 2.3,2.82 2.7,4.64 0.12,0.59 0.19,1.2 0.19,1.83 V 35 h 5 c 0.55,0 1,-0.45 1,-1 V 32.83 C 44,29.06 40.86,26 37,26 Z"
       id="path10847"
       inkscape:connector-curvature="0"
       style="fill:#def4e8" />
    <path
       d="m 21,25 c 0.35,0 0.69,-0.03 1.03,-0.09 -0.34,-0.6 -0.6,-1.24 -0.78,-1.92 C 21.09,22.36 21,21.69 21,21 c 0,-2.07 0.8,-3.97 2.1,-5.39 0.46,-0.51 0.9901,-0.96 1.58,-1.33 C 23.65,13.47 22.36,13 21,13 c -3.31,0 -6,2.69 -6,6 0,3.31 2.69,6 6,6 z"
       id="path10849"
       inkscape:connector-curvature="0"
       style="fill:#def4e8" />
    <path
       d="m 24.49,17.06 c -0.05,0.06 -0.11,0.11 -0.15,0.17 -0.06,0.06 -0.1,0.12 -0.14,0.18 -0.09,0.12 -0.17,0.23 -0.24,0.35 -0.06,0.09 -0.12,0.17 -0.16,0.26 -0.06,0.09 -0.11,0.1801 -0.15,0.27 -0.1,0.19 -0.19,0.39 -0.26,0.59 -0.06,0.15 -0.11,0.3 -0.15,0.46 -0.04,0.12 -0.08,0.25 -0.1,0.38 -0.03,0.11 -0.05,0.21 -0.06,0.32 -0.01,0.05 -0.02,0.09 -0.02,0.14 -0.01,0.09 -0.02,0.17 -0.03,0.26 C 23.01,20.62 23,20.81 23,21 c 0,0.18 0.01,0.36 0.03,0.53 0,0.05 0.0099,0.1 0.0099,0.15 0.01,0.14 0.03,0.27 0.06,0.4 0,0.01 0,0.01 0,0.01 0.02,0.09 0.04,0.18 0.06,0.27 0.02,0.13 0.06,0.25 0.1,0.37 0.03,0.12 0.07,0.24 0.12,0.36 0.04,0.11 0.08,0.22 0.13,0.33 0.05,0.12 0.11,0.25 0.18,0.37 0.05,0.1 0.1,0.19 0.16,0.28 0.03,0.05 0.06,0.1 0.09,0.15 0.1,0.15 0.2,0.3 0.32,0.45 0.05,0.07 0.11,0.14 0.17,0.21 0.19,0.23 0.41,0.45 0.64,0.65 0.08,0.07 0.16,0.13 0.25,0.2 0.33,0.26 0.68,0.48 1.05,0.66 0.22,0.11 0.45,0.21 0.68,0.28 0.08,0.03 0.16,0.06 0.25,0.08 0.18,0.05 0.37,0.1 0.56,0.14 0.2,0.04 0.39,0.0699 0.59,0.08 C 28.63,26.99 28.81,27 29,27 c 0.19,0 0.37,-0.01 0.55,-0.03 0.2,-0.01 0.39,-0.04 0.59,-0.08 0.19,-0.04 0.38,-0.09 0.56,-0.14 0.09,-0.02 0.17,-0.05 0.25,-0.08 0.23,-0.07 0.46,-0.17 0.68,-0.28 0.13,-0.0601 0.25,-0.13 0.37,-0.2 0.24,-0.13 0.46,-0.28 0.68,-0.46 0.09,-0.07 0.17,-0.13 0.25,-0.2 0.23,-0.2 0.45,-0.42 0.64,-0.65 0.06,-0.07 0.12,-0.14 0.17,-0.21 0.12,-0.15 0.22,-0.3 0.32,-0.45 0.03,-0.05 0.06,-0.1 0.09,-0.15 0.06,-0.09 0.11,-0.18 0.16,-0.28 0.07,-0.12 0.13,-0.25 0.18,-0.37 0.05,-0.11 0.09,-0.22 0.13,-0.33 0.05,-0.12 0.09,-0.24 0.12,-0.36 0.04,-0.12 0.08,-0.24 0.1,-0.37 0.02,-0.09 0.04,-0.18 0.06,-0.27 0,0 0,0 0,-0.01 0.03,-0.1299 0.05,-0.2599 0.06,-0.4 0,-0.05 0.0099,-0.1 0.0099,-0.15 C 34.99,21.36 35,21.18 35,21 c 0,-0.19 -0.01,-0.38 -0.03,-0.56 0,-0.09 -0.0099,-0.18 -0.03,-0.26 0,-0.05 -0.01,-0.09 -0.02,-0.14 -0.01,-0.11 -0.03,-0.21 -0.06,-0.32 -0.02,-0.13 -0.06,-0.26 -0.1,-0.38 -0.04,-0.16 -0.09,-0.31 -0.15,-0.46 -0.07,-0.2 -0.16,-0.4 -0.26,-0.59 -0.04,-0.09 -0.09,-0.18 -0.15,-0.27 -0.04,-0.09 -0.1,-0.17 -0.16,-0.2599 -0.07,-0.12 -0.15,-0.23 -0.24,-0.35 -0.04,-0.06 -0.08,-0.12 -0.14,-0.18 -0.04,-0.06 -0.1,-0.11 -0.15,-0.17 V 17.05 C 33.36,16.87 33.2,16.71 33.02,16.56 32.93,16.47 32.84,16.39 32.75,16.32 32.49,16.11 32.22,15.93 31.94,15.77 31.83,15.71 31.72,15.65 31.61,15.6 30.82,15.21 29.93,15 29,15 c -0.93,0 -1.82,0.21 -2.61,0.6 -0.11,0.05 -0.22,0.11 -0.33,0.17 -0.28,0.16 -0.55,0.34 -0.81,0.55 -0.11,0.09 -0.21,0.18 -0.31,0.28 -0.16,0.13 -0.31,0.29 -0.45,0.45 z"
       id="path10851"
       inkscape:connector-curvature="0"
       style="fill:#def4e8" />
    <path
       d="m 24.18,27.38 c 0.18,-0.12 0.37,-0.23 0.56,-0.32 C 24.2,26.72 23.62,26.46 23.01,26.29 22.37,26.1 21.69,26 21,26 c -1.87,0 -3.63,0.71 -4.93,1.99 -1.34,1.28 -2.07,3 -2.07,4.84 V 34 c 0,0.55 0.45,1 1,1 h 5 v -0.17 c 0,-0.63 0.07,-1.24 0.19,-1.83 0.4,-1.82 1.36,-3.43 2.7,-4.65 0.4,-0.36 0.83,-0.69 1.29,-0.97 z"
       id="path10853"
       inkscape:connector-curvature="0"
       style="fill:#def4e8" />
    <path
       d="m 37,21 c 0,0.69 -0.09,1.36 -0.25,1.99 -0.18,0.68 -0.44,1.32 -0.78,1.92 0.34,0.06 0.68,0.09 1.03,0.09 3.31,0 6,-2.69 6,-6 0,-3.31 -2.69,-6 -6,-6 -1.36,0 -2.65,0.47 -3.68,1.28 0.59,0.37 1.12,0.82 1.58,1.33 1.3,1.42 2.1,3.32 2.1,5.39 z"
       id="path10855"
       inkscape:connector-curvature="0"
       style="fill:#def4e8" />
    <path
       d="m 35.87,33.56 c 0,-0.04 -0.01,-0.08 -0.02,-0.12 -0.03,-0.15 -0.06,-0.3 -0.11,-0.44 -0.04,-0.15 -0.09,-0.3 -0.15,-0.45 -0.01,-0.06 -0.03,-0.11 -0.06,-0.16 -0.05,-0.13 -0.1,-0.25 -0.16,-0.3701 -0.04,-0.11 -0.1,-0.22 -0.16,-0.33 -0.03,-0.06 -0.07,-0.12 -0.1,-0.18 -0.17,-0.31 -0.37,-0.6 -0.6,-0.88 -0.11,-0.14 -0.23,-0.27 -0.35,-0.4 -0.23,-0.26 -0.5,-0.5 -0.79,-0.72 -0.35,-0.28 -0.72,-0.52 -1.12,-0.72 -0.14,-0.08 -0.28,-0.14 -0.42,-0.2 -0.05,-0.03 -0.09,-0.04 -0.14,-0.06 h -0.01 c 0,0 0,-0.01 -0.01,-0.01 -0.02,-0.0099 -0.04,-0.02 -0.07,-0.03 H 31.59 C 30.79,28.17 29.92,28 29,28 c -0.24,0 -0.48,0.01 -0.71,0.04 -0.17,0.01 -0.33,0.03 -0.48,0.07 -0.02,-0.01 -0.04,0 -0.06,0.01 -0.08,0.01 -0.16,0.02 -0.23,0.04 -0.08,0.01 -0.16,0.03 -0.23,0.06 -0.15,0.03 -0.29,0.07 -0.44,0.11 -0.15,0.05 -0.31,0.1 -0.45,0.17 -0.03,0 -0.06,0.01 -0.09,0.03 -0.22,0.09 -0.44,0.19 -0.64,0.3 -0.2,0.1 -0.4,0.22 -0.58,0.34 -0.16,0.11 -0.32,0.22 -0.47,0.34 -0.05,0.03 -0.09,0.0699 -0.13,0.11 -0.15,0.12 -0.29,0.24 -0.43,0.38 -0.04,0.04 -0.08,0.08 -0.12,0.12 -0.23,0.23 -0.43,0.47 -0.62,0.73 -0.08,0.11 -0.16,0.21 -0.23,0.33 -0.08,0.11 -0.15,0.22 -0.21,0.34 -0.04,0.07 -0.08,0.15 -0.12,0.23 -0.08,0.16 -0.16,0.32 -0.23,0.49 -0.02,0.02 -0.03,0.04 -0.03,0.06 -0.05,0.11 -0.09,0.22 -0.13,0.34 -0.01,0.03 -0.02,0.0699 -0.03,0.1 -0.03,0.09 -0.06,0.18 -0.08,0.26 -0.05,0.14 -0.08,0.29 -0.11,0.44 -0.01,0.04 -0.02,0.08 -0.02,0.12 -0.05,0.19 -0.07,0.38 -0.09,0.57 C 22.01,34.36 22,34.6 22,34.83 V 35 36 c 0,0.55 0.45,1 1,1 h 2 8 2 c 0.55,0 1,-0.45 1,-1 v -1 -0.17 c 0,-0.23 -0.01,-0.47 -0.04,-0.7 -0.02,-0.19 -0.04,-0.38 -0.09,-0.57 z"
       id="path10857"
       inkscape:connector-curvature="0"
       style="fill:#def4e8" />
  </g>
</svg>
