<svg width="58" height="58" viewBox="0 0 58 58" fill="none" xmlns="http://www.w3.org/2000/svg">
<g filter="url(#filter0_d)">
<rect x="4" width="50" height="50" rx="3" fill="#4D7962"/>
</g>
<g filter="url(#filter1_d)">
<path d="M37 26C36.31 26 35.64 26.1 35 26.28C34.38 26.46 33.8 26.72 33.26 27.06C33.45 27.15 33.64 27.26 33.82 27.38C34.28 27.66 34.71 27.99 35.11 28.36C36.45 29.57 37.41 31.18 37.81 33C37.93 33.59 38 34.2 38 34.83V35H43C43.55 35 44 34.55 44 34V32.83C44 29.06 40.86 26 37 26Z" fill="#DEF4E8"/>
<path d="M21 25C21.35 25 21.69 24.97 22.03 24.91C21.69 24.31 21.43 23.67 21.25 22.99C21.09 22.36 21 21.69 21 21C21 18.93 21.8 17.03 23.1 15.61C23.56 15.1 24.0901 14.65 24.68 14.28C23.65 13.47 22.36 13 21 13C17.69 13 15 15.69 15 19C15 22.31 17.69 25 21 25Z" fill="#DEF4E8"/>
<path d="M24.49 17.06C24.44 17.12 24.38 17.17 24.34 17.23C24.28 17.29 24.24 17.35 24.2 17.41C24.11 17.53 24.03 17.64 23.96 17.76C23.9 17.85 23.84 17.93 23.8 18.02C23.74 18.11 23.69 18.2001 23.65 18.29C23.55 18.48 23.46 18.68 23.39 18.88C23.33 19.03 23.28 19.18 23.24 19.34C23.2 19.46 23.16 19.59 23.14 19.72C23.11 19.83 23.09 19.93 23.08 20.04C23.07 20.09 23.06 20.13 23.06 20.18C23.05 20.27 23.04 20.35 23.03 20.44C23.01 20.62 23 20.81 23 21C23 21.18 23.01 21.36 23.03 21.53C23.03 21.58 23.0399 21.63 23.0399 21.68C23.0499 21.82 23.0699 21.95 23.0999 22.08C23.0999 22.09 23.0999 22.09 23.0999 22.09C23.1199 22.18 23.1399 22.27 23.1599 22.36C23.1799 22.49 23.2199 22.61 23.2599 22.73C23.2899 22.85 23.3299 22.97 23.3799 23.09C23.4199 23.2 23.4599 23.31 23.5099 23.42C23.5599 23.54 23.6199 23.67 23.6899 23.79C23.7399 23.89 23.7899 23.98 23.8499 24.07C23.8799 24.12 23.9099 24.17 23.9399 24.22C24.0399 24.37 24.1399 24.52 24.2599 24.67C24.3099 24.74 24.3699 24.81 24.4299 24.88C24.6199 25.11 24.8399 25.33 25.0699 25.53C25.1499 25.6 25.2299 25.66 25.3199 25.73C25.6499 25.99 25.9999 26.21 26.3699 26.39C26.5899 26.5 26.8199 26.6 27.0499 26.67C27.1299 26.7 27.2099 26.73 27.2999 26.75C27.4799 26.8 27.6699 26.85 27.8599 26.89C28.0599 26.93 28.2499 26.9599 28.4499 26.97C28.63 26.99 28.81 27 29 27C29.19 27 29.37 26.99 29.55 26.97C29.75 26.96 29.94 26.93 30.14 26.89C30.33 26.85 30.52 26.8 30.7 26.75C30.79 26.73 30.87 26.7 30.95 26.67C31.18 26.6 31.41 26.5 31.63 26.39C31.76 26.3299 31.88 26.26 32 26.19C32.24 26.06 32.46 25.91 32.68 25.73C32.77 25.66 32.85 25.6 32.93 25.53C33.16 25.33 33.38 25.11 33.57 24.88C33.63 24.81 33.69 24.74 33.74 24.67C33.86 24.52 33.96 24.37 34.06 24.22C34.09 24.17 34.12 24.12 34.15 24.07C34.21 23.98 34.26 23.89 34.31 23.79C34.38 23.67 34.44 23.54 34.49 23.42C34.54 23.31 34.58 23.2 34.62 23.09C34.67 22.97 34.71 22.85 34.74 22.73C34.78 22.61 34.82 22.49 34.84 22.36C34.86 22.27 34.88 22.18 34.9 22.09C34.9 22.09 34.9 22.09 34.9 22.08C34.93 21.9501 34.95 21.8201 34.96 21.68C34.96 21.63 34.9699 21.58 34.9699 21.53C34.99 21.36 35 21.18 35 21C35 20.81 34.99 20.62 34.97 20.44C34.97 20.35 34.9601 20.26 34.94 20.18C34.94 20.13 34.93 20.09 34.92 20.04C34.91 19.93 34.89 19.83 34.86 19.72C34.84 19.59 34.8 19.46 34.76 19.34C34.72 19.18 34.67 19.03 34.61 18.88C34.54 18.68 34.45 18.48 34.35 18.29C34.31 18.2 34.26 18.11 34.2 18.02C34.16 17.93 34.1 17.85 34.04 17.7601C33.97 17.6401 33.89 17.5301 33.8 17.4101C33.76 17.3501 33.72 17.2901 33.66 17.2301C33.62 17.1701 33.56 17.1201 33.51 17.0601V17.05C33.36 16.87 33.2 16.71 33.02 16.56C32.93 16.47 32.84 16.39 32.75 16.32C32.49 16.11 32.22 15.93 31.94 15.77C31.83 15.71 31.72 15.65 31.61 15.6C30.82 15.21 29.93 15 29 15C28.07 15 27.18 15.21 26.39 15.6C26.28 15.65 26.17 15.71 26.06 15.77C25.78 15.93 25.51 16.11 25.25 16.32C25.14 16.41 25.04 16.5 24.94 16.6C24.78 16.73 24.63 16.89 24.49 17.05V17.06Z" fill="#DEF4E8"/>
<path d="M24.18 27.38C24.36 27.26 24.55 27.15 24.74 27.06C24.2 26.72 23.62 26.46 23.01 26.29C22.37 26.1 21.69 26 21 26C19.13 26 17.37 26.71 16.07 27.99C14.73 29.27 14 30.99 14 32.83V34C14 34.55 14.45 35 15 35H20V34.83C20 34.2 20.07 33.59 20.19 33C20.59 31.18 21.55 29.57 22.89 28.35C23.29 27.99 23.72 27.66 24.18 27.38Z" fill="#DEF4E8"/>
<path d="M37 21C37 21.69 36.91 22.36 36.75 22.99C36.57 23.67 36.31 24.31 35.97 24.91C36.31 24.97 36.65 25 37 25C40.31 25 43 22.31 43 19C43 15.69 40.31 13 37 13C35.64 13 34.35 13.47 33.32 14.28C33.91 14.65 34.44 15.1 34.9 15.61C36.2 17.03 37 18.93 37 21Z" fill="#DEF4E8"/>
<path d="M35.87 33.56C35.87 33.52 35.86 33.48 35.85 33.44C35.82 33.29 35.79 33.14 35.74 33C35.7 32.85 35.65 32.7 35.59 32.55C35.58 32.49 35.56 32.44 35.53 32.39C35.48 32.26 35.43 32.14 35.37 32.0199C35.33 31.9099 35.27 31.7999 35.21 31.6899C35.18 31.6299 35.14 31.5699 35.11 31.5099C34.94 31.1999 34.74 30.9099 34.51 30.6299C34.4 30.4899 34.28 30.3599 34.16 30.2299C33.93 29.9699 33.66 29.7299 33.37 29.5099C33.02 29.2299 32.65 28.9899 32.25 28.7899C32.11 28.7099 31.97 28.6499 31.83 28.5899C31.78 28.5599 31.74 28.5499 31.69 28.5299H31.68C31.68 28.5299 31.68 28.5199 31.67 28.5199C31.65 28.51 31.63 28.4999 31.6 28.4899H31.59C30.79 28.17 29.92 28 29 28C28.76 28 28.52 28.01 28.29 28.04C28.12 28.05 27.96 28.07 27.81 28.11C27.79 28.1 27.77 28.11 27.75 28.12C27.67 28.13 27.59 28.14 27.52 28.16C27.44 28.17 27.36 28.19 27.29 28.22C27.14 28.25 27 28.29 26.85 28.33C26.7 28.38 26.54 28.43 26.4 28.5C26.37 28.5 26.34 28.51 26.31 28.53C26.09 28.62 25.87 28.72 25.67 28.83C25.47 28.93 25.27 29.05 25.09 29.17C24.93 29.28 24.77 29.39 24.62 29.51C24.57 29.54 24.53 29.5799 24.49 29.62C24.34 29.74 24.2 29.86 24.06 30C24.02 30.04 23.98 30.08 23.94 30.12C23.71 30.35 23.51 30.59 23.32 30.85C23.24 30.96 23.16 31.06 23.09 31.18C23.01 31.29 22.94 31.4 22.88 31.52C22.84 31.59 22.8 31.67 22.76 31.75C22.68 31.91 22.6 32.07 22.53 32.24C22.51 32.26 22.5 32.28 22.5 32.3C22.45 32.41 22.41 32.52 22.37 32.64C22.36 32.67 22.35 32.7099 22.34 32.74C22.31 32.83 22.28 32.92 22.26 33C22.21 33.14 22.18 33.29 22.15 33.44C22.14 33.48 22.13 33.52 22.13 33.56C22.08 33.75 22.06 33.94 22.04 34.13C22.01 34.36 22 34.6 22 34.83V35V36C22 36.55 22.45 37 23 37H25H33H35C35.55 37 36 36.55 36 36V35V34.83C36 34.6 35.99 34.36 35.96 34.13C35.94 33.94 35.92 33.75 35.87 33.56Z" fill="#DEF4E8"/>
</g>
<defs>
<filter id="filter0_d" x="0" y="0" width="58" height="58" filterUnits="userSpaceOnUse" color-interpolation-filters="sRGB">
<feFlood flood-opacity="0" result="BackgroundImageFix"/>
<feColorMatrix in="SourceAlpha" type="matrix" values="0 0 0 0 0 0 0 0 0 0 0 0 0 0 0 0 0 0 127 0"/>
<feOffset dy="4"/>
<feGaussianBlur stdDeviation="2"/>
<feColorMatrix type="matrix" values="0 0 0 0 0 0 0 0 0 0 0 0 0 0 0 0 0 0 0.25 0"/>
<feBlend mode="normal" in2="BackgroundImageFix" result="effect1_dropShadow"/>
<feBlend mode="normal" in="SourceGraphic" in2="effect1_dropShadow" result="shape"/>
</filter>
<filter id="filter1_d" x="10" y="13" width="38" height="32" filterUnits="userSpaceOnUse" color-interpolation-filters="sRGB">
<feFlood flood-opacity="0" result="BackgroundImageFix"/>
<feColorMatrix in="SourceAlpha" type="matrix" values="0 0 0 0 0 0 0 0 0 0 0 0 0 0 0 0 0 0 127 0"/>
<feOffset dy="4"/>
<feGaussianBlur stdDeviation="2"/>
<feColorMatrix type="matrix" values="0 0 0 0 0 0 0 0 0 0 0 0 0 0 0 0 0 0 0.25 0"/>
<feBlend mode="normal" in2="BackgroundImageFix" result="effect1_dropShadow"/>
<feBlend mode="normal" in="SourceGraphic" in2="effect1_dropShadow" result="shape"/>
</filter>
</defs>
</svg>
