<?xml version="1.0" encoding="UTF-8" standalone="no"?>
<svg
   xmlns:dc="http://purl.org/dc/elements/1.1/"
   xmlns:cc="http://creativecommons.org/ns#"
   xmlns:rdf="http://www.w3.org/1999/02/22-rdf-syntax-ns#"
   xmlns:svg="http://www.w3.org/2000/svg"
   xmlns="http://www.w3.org/2000/svg"
   xmlns:sodipodi="http://sodipodi.sourceforge.net/DTD/sodipodi-0.dtd"
   xmlns:inkscape="http://www.inkscape.org/namespaces/inkscape"
   version="1.1"
   x="0px"
   y="0px"
   viewBox="0 0 50 50"
   enable-background="new 0 0 100 100"
   xml:space="preserve"
   id="svg8"
   sodipodi:docname="show-message.svg"
   width="50"
   height="50"
   inkscape:version="0.92.3 (2405546, 2018-03-11)"><metadata
     id="metadata14"><rdf:RDF><cc:Work
         rdf:about=""><dc:format>image/svg+xml</dc:format><dc:type
           rdf:resource="http://purl.org/dc/dcmitype/StillImage" /><dc:title /></cc:Work></rdf:RDF></metadata><defs
     id="defs12" /><sodipodi:namedview
     pagecolor="#ffffff"
     bordercolor="#666666"
     borderopacity="1"
     objecttolerance="10"
     gridtolerance="10"
     guidetolerance="10"
     inkscape:pageopacity="0"
     inkscape:pageshadow="2"
     inkscape:window-width="1920"
     inkscape:window-height="1034"
     id="namedview10"
     showgrid="false"
     inkscape:zoom="3.776"
     inkscape:cx="-20.573337"
     inkscape:cy="26.227611"
     inkscape:window-x="1919"
     inkscape:window-y="27"
     inkscape:window-maximized="1"
     inkscape:current-layer="svg8" /><rect
     style="display:inline;fill:#4d7962"
     y="0"
     id="rect10149"
     rx="3"
     height="50"
     width="50"
     x="0" /><path
     d="m 11.729353,38.18848 c 0.567672,0 1.110012,-0.274016 1.612018,-0.815672 l 2.166691,-2.336354 c 0.424669,-0.458331 1.41835,-0.891687 2.043033,-0.891687 H 37.00465 C 38.656659,34.144767 40,32.800754 40,31.149417 V 14.80723 c 0,-1.651694 -1.343341,-2.99571 -2.99535,-2.99571 H 12.995365 C 11.343349,11.81152 10,13.155536 10,14.80723 v 12.389448 3.512372 0.440367 3.512372 1.400339 c 0,1.469678 0.86901,2.126352 1.729353,2.126352 z m 3.714706,-20.597246 h 19.113534 c 0.342343,0 0.61936,0.277693 0.61936,0.619696 0,0.341667 -0.277017,0.619319 -0.61936,0.619319 H 15.444059 c -0.342668,0 -0.619672,-0.277652 -0.619672,-0.619319 0,-0.342003 0.277004,-0.619696 0.619672,-0.619696 z m 0,4.644058 h 19.113534 c 0.342343,0 0.61936,0.277355 0.61936,0.619697 0,0.342341 -0.277017,0.619657 -0.61936,0.619657 H 15.444059 c -0.342668,0 -0.619672,-0.277316 -0.619672,-0.619657 0,-0.342342 0.277004,-0.619697 0.619672,-0.619697 z m 0,4.64507 h 9.555455 c 0.342336,0 0.619656,0.277657 0.619656,0.619323 0,0.342 -0.27732,0.619697 -0.619656,0.619697 h -9.555455 c -0.342668,0 -0.619672,-0.277697 -0.619672,-0.619697 0,-0.341666 0.277004,-0.619323 0.619672,-0.619323 z"
     id="path2"
     inkscape:connector-curvature="0"
     style="display:inline;fill:none;fill-opacity:1;stroke-width:1.5;stroke:#def4e8;stroke-opacity:1;stroke-miterlimit:4;stroke-dasharray:none" /></svg>