<?xml version="1.0" encoding="UTF-8" standalone="no"?>
<svg
   xmlns:dc="http://purl.org/dc/elements/1.1/"
   xmlns:cc="http://creativecommons.org/ns#"
   xmlns:rdf="http://www.w3.org/1999/02/22-rdf-syntax-ns#"
   xmlns:svg="http://www.w3.org/2000/svg"
   xmlns="http://www.w3.org/2000/svg"
   xmlns:sodipodi="http://sodipodi.sourceforge.net/DTD/sodipodi-0.dtd"
   xmlns:inkscape="http://www.inkscape.org/namespaces/inkscape"
   viewBox="0 0 50 50"
   version="1.1"
   x="0px"
   y="0px"
   id="svg14"
   sodipodi:docname="task-output.svg"
   width="50"
   height="50"
   enable-background="new"
   inkscape:version="0.92.3 (2405546, 2018-03-11)">
  <metadata
     id="metadata20">
    <rdf:RDF>
      <cc:Work
         rdf:about="">
        <dc:format>image/svg+xml</dc:format>
        <dc:type
           rdf:resource="http://purl.org/dc/dcmitype/StillImage" />
        <dc:title>icon/input-down</dc:title>
      </cc:Work>
    </rdf:RDF>
  </metadata>
  <defs
     id="defs18" />
  <sodipodi:namedview
     pagecolor="#ffffff"
     bordercolor="#666666"
     borderopacity="1"
     objecttolerance="10"
     gridtolerance="10"
     guidetolerance="10"
     inkscape:pageopacity="0"
     inkscape:pageshadow="2"
     inkscape:window-width="1920"
     inkscape:window-height="1034"
     id="namedview16"
     showgrid="false"
     inkscape:zoom="15.733334"
     inkscape:cx="11.54118"
     inkscape:cy="13.611218"
     inkscape:window-x="1919"
     inkscape:window-y="27"
     inkscape:window-maximized="1"
     inkscape:current-layer="g6" />
  <title
     id="title2">icon/input-down</title>
  <desc
     id="desc4">Created with Sketch.</desc>
  <rect
     style="display:inline;fill:#4d7962"
     y="0"
     id="rect10149"
     rx="3"
     height="50"
     width="50"
     x="0"
     clip-path="none" />
  <path
     style="display:inline;fill:#def4e8"
     inkscape:connector-curvature="0"
     id="path9365"
     d="M 32.5,13.2381 H 31.25 V 12 h -12.5 v 1.2381 H 17.5 c -1.3807,0 -2.5,1.1086 -2.5,2.4762 V 35.5238 C 15,36.8914 16.1193,38 17.5,38 h 15 C 33.8807,38 35,36.8914 35,35.5238 V 15.7143 c 0,-1.3676 -1.1193,-2.4762 -2.5,-2.4762 z m -12.5,0 h 10 v 1.2381 H 20 Z m 13.75,22.2857 c 0,0.6827 -0.5608,1.2381 -1.25,1.2381 h -15 c -0.6892,0 -1.25,-0.5554 -1.25,-1.2381 V 15.7143 c 0,-0.6827 0.5608,-1.2381 1.25,-1.2381 h 1.25 v 1.2381 h 12.5 v -1.2381 h 1.25 c 0.6892,0 1.25,0.5554 1.25,1.2381 z m -15,-16.0952 h 12.5 v 1.2381 h -12.5 z m 0,3.7143 h 12.5 v 1.2381 h -12.5 z m 0,3.7142 h 12.5 v 1.2381 h -12.5 z m 0,3.7143 H 25 v 1.2381 h -6.25 z"
     mask="none"
     clip-path="none" />
  <g
     id="g894"
     mask="none"
     transform="matrix(1.0752166,0,0,1.0752166,-1.7065813,-0.77476709)">
    <circle
       style="opacity:1;fill:#4d7962;fill-opacity:1;stroke-width:1.19869149"
       id="path822"
       cx="33.459137"
       cy="33.669956"
       r="8.380682"
       inkscape:label="circle" />
    <g
       transform="matrix(0.01830798,0,0,0.01830798,28.772294,28.983113)"
       id="g6"
       style="fill:#def4e8;fill-opacity:1"
       inkscape:label="down">
      <path
         d="m 248.6,5.525 c 3.5,-4.7 11.3,-4.7 14.9,0 l 117.2,136.6 c 4,5.3 -0.3,12.3 -7.4,12.3 h -59.6 c -3.5,0 -6.3,2.7 -6.3,6.1 v 140.2 c 0,3.4 -2.8,6.1 -6.3,6.1 h -89.4 c -3.5,0 -6.3,-2.7 -6.3,-6.1 v -140.2 c 0,-3.4 -2.8,-6.1 -6.3,-6.1 H 139 c -7.1,0 -11.4,-7 -7.4,-12.3 z"
         id="path2"
         inkscape:connector-curvature="0"
         style="fill:#def4e8;fill-opacity:1" />
      <path
         d="m 499.8,306.8 h -81.3 c -5.6,0 -10.2,4.5 -10.2,10.2 v 81.3 c 0,5.6 -4.5,10.2 -10.2,10.2 H 113.8 c -5.6,0 -10.2,-4.5 -10.2,-10.2 V 317 c 0,-5.6 -4.5,-10.2 -10.2,-10.2 H 12.2 C 6.5,306.8 2,311.3 2,317 V 459.2 C 2,487.3 24.7,510 52.8,510 h 406.4 c 28.1,0 50.8,-22.7 50.8,-50.8 V 317 c 0,-5.7 -4.6,-10.2 -10.2,-10.2 z"
         id="path4"
         inkscape:connector-curvature="0"
         style="fill:#def4e8;fill-opacity:1" />
    </g>
    <path
       d="m 33.741893,35.301593 3.475906,-3.475905 c 0.110424,-0.110423 0.289455,-0.110423 0.399879,0 0.110423,0.110424 0.110423,0.289455 0,0.39988 l -3.958602,3.9586 c -0.110423,0.110424 -0.289456,0.110424 -0.399879,0 l -3.958602,-3.9586 c -0.110423,-0.110425 -0.110423,-0.289456 0,-0.39988 0.110424,-0.110423 0.289456,-0.110423 0.399879,0 l 3.475906,3.475905 v -7.800082 c 0,-0.156162 0.126595,-0.282756 0.282757,-0.282756 0.156161,0 0.282756,0.126594 0.282756,0.282756 z m 4.524117,2.661938 v -1.979302 c 0,-0.156161 0.126595,-0.282756 0.282758,-0.282756 0.156162,0 0.282757,0.126595 0.282757,0.282756 v 2.262059 c 0,0.156162 -0.126595,0.282757 -0.282757,0.282757 H 28.369505 c -0.156162,0 -0.282757,-0.126595 -0.282757,-0.282757 v -2.262059 c 0,-0.156161 0.126595,-0.282756 0.282757,-0.282756 0.156163,0 0.282758,0.126595 0.282758,0.282756 v 1.979302 z"
       id="path6"
       inkscape:connector-curvature="0"
       style="display:none;fill:none;fill-opacity:1;fill-rule:nonzero;stroke:#d9e7df;stroke-width:0.5716483;stroke-miterlimit:4;stroke-dasharray:none;stroke-opacity:1" />
  </g>
</svg>
