<?xml version="1.0" encoding="UTF-8" standalone="no"?>
<svg
   xmlns:dc="http://purl.org/dc/elements/1.1/"
   xmlns:cc="http://creativecommons.org/ns#"
   xmlns:rdf="http://www.w3.org/1999/02/22-rdf-syntax-ns#"
   xmlns:svg="http://www.w3.org/2000/svg"
   xmlns="http://www.w3.org/2000/svg"
   xmlns:sodipodi="http://sodipodi.sourceforge.net/DTD/sodipodi-0.dtd"
   xmlns:inkscape="http://www.inkscape.org/namespaces/inkscape"
   version="1.1"
   x="0px"
   y="0px"
   viewBox="0 0 50 50.000001"
   enable-background="new 0 0 100 85.511"
   xml:space="preserve"
   id="svg20"
   sodipodi:docname="user-select.svg"
   inkscape:version="0.92.3 (2405546, 2018-03-11)"
   width="50"
   height="50"><metadata
     id="metadata26"><rdf:RDF><cc:Work
         rdf:about=""><dc:format>image/svg+xml</dc:format><dc:type
           rdf:resource="http://purl.org/dc/dcmitype/StillImage" /><dc:title></dc:title></cc:Work></rdf:RDF></metadata><defs
     id="defs24" /><sodipodi:namedview
     pagecolor="#ffffff"
     bordercolor="#666666"
     borderopacity="1"
     objecttolerance="10"
     gridtolerance="10"
     guidetolerance="10"
     inkscape:pageopacity="0"
     inkscape:pageshadow="2"
     inkscape:window-width="1920"
     inkscape:window-height="1034"
     id="namedview22"
     showgrid="false"
     inkscape:zoom="6.2448931"
     inkscape:cx="34.84555"
     inkscape:cy="55.846215"
     inkscape:window-x="1919"
     inkscape:window-y="27"
     inkscape:window-maximized="1"
     inkscape:current-layer="svg20" /><rect
     style="fill:#4d7962"
     y="0"
     id="rect10149"
     rx="3"
     height="50"
     width="50"
     x="0" /><g
     id="g14"
     transform="matrix(0.29999932,0,0,0.29999932,10.000068,12.173379)"
     style="fill:#def4e8;fill-opacity:1"><path
       d="m 45.172,17.244 h 49.344 c 3.027,0 5.484,-2.453 5.484,-5.483 0,-3.03 -2.458,-5.484 -5.484,-5.484 H 45.172 c -3.029,0 -5.483,2.454 -5.483,5.484 0,3.031 2.456,5.483 5.483,5.483 z"
       id="path2"
       inkscape:connector-curvature="0"
       style="fill:#def4e8;fill-opacity:1" /><path
       d="M 94.516,39.175 H 45.172 c -3.029,0 -5.483,2.453 -5.483,5.482 0,3.032 2.456,5.484 5.483,5.484 h 49.344 c 3.027,0 5.484,-2.453 5.484,-5.484 0,-3.03 -2.457,-5.482 -5.484,-5.482 z"
       id="path4"
       inkscape:connector-curvature="0"
       style="fill:#def4e8;fill-opacity:1" /><path
       d="M 94.516,72.071 H 45.172 c -3.029,0 -5.483,2.451 -5.483,5.484 0,3.03 2.456,5.481 5.483,5.481 h 49.344 c 3.027,0 5.484,-2.451 5.484,-5.481 0,-3.033 -2.457,-5.484 -5.484,-5.484 z"
       id="path6"
       inkscape:connector-curvature="0"
       style="fill:#def4e8;fill-opacity:1" /><path
       d="M 22.718,7.588 H 16.066 L 14.013,1.264 C 13.768,0.509 13.068,0 12.275,0 11.483,0 10.783,0.509 10.537,1.264 L 8.477,7.588 H 1.83 c -0.792,0 -1.495,0.511 -1.742,1.264 -0.242,0.754 0.025,1.578 0.664,2.042 l 5.384,3.911 -2.056,6.324 c -0.242,0.75 0.022,1.578 0.664,2.042 0.639,0.466 1.507,0.466 2.15,0 l 5.382,-3.91 5.383,3.91 c 0.321,0.235 0.699,0.35 1.074,0.35 0.374,0 0.753,-0.115 1.074,-0.35 0.643,-0.464 0.907,-1.292 0.665,-2.042 l -2.057,-6.324 5.384,-3.911 C 24.437,10.43 24.704,9.605 24.463,8.852 24.215,8.099 23.512,7.588 22.718,7.588 Z"
       id="path8"
       inkscape:connector-curvature="0"
       style="fill:#def4e8;fill-opacity:1" /><path
       d="M 18.403,36.701 H 6.147 c -1.01,0 -1.828,0.817 -1.828,1.828 v 12.257 c 0,1.011 0.818,1.826 1.828,1.826 h 12.256 c 1.011,0 1.827,-0.815 1.827,-1.826 V 38.529 c 0,-1.01 -0.816,-1.828 -1.827,-1.828 z"
       id="path10"
       inkscape:connector-curvature="0"
       style="fill:#def4e8;fill-opacity:1" /><path
       d="M 18.403,69.598 H 6.147 c -1.01,0 -1.828,0.817 -1.828,1.827 v 12.257 c 0,1.013 0.818,1.829 1.828,1.829 h 12.256 c 1.011,0 1.827,-0.816 1.827,-1.829 V 71.425 c 0,-1.01 -0.816,-1.827 -1.827,-1.827 z"
       id="path12"
       inkscape:connector-curvature="0"
       style="fill:#def4e8;fill-opacity:1" /></g></svg>