<svg width="239" height="263" viewBox="0 0 239 263" fill="none" xmlns="http://www.w3.org/2000/svg">
<g filter="url(#filter0_i)">
<path d="M181.331 189.963C192.901 197.004 203.514 204.664 209.416 210.992C205.5 175.5 219.5 126.5 238.334 108.076C221.202 110.617 195.441 121.756 173.298 135.704C174.917 152.619 177.65 170.948 181.331 189.963Z" fill="url(#paint0_linear)"/>
</g>
<g filter="url(#filter1_i)">
<path d="M187.139 220.151C185.206 217.85 183.277 215.557 181.353 213.272C152.658 179.175 125.371 146.751 109.194 111.03C109.119 110.755 109.049 110.483 108.984 110.217C125.478 81.5399 153.405 63.8015 179.647 54.0875C165.5 82 171 149.5 188 221C187.718 220.724 187.431 220.441 187.139 220.151Z" fill="url(#paint1_linear)"/>
</g>
<g filter="url(#filter2_i)">
<path d="M100.364 0C53.5842 34.8723 0 176.062 0 244.106C27.2174 214.337 154.799 207.533 187.97 221.141C130.318 152.443 75.3179 91.9429 100.364 0Z" fill="url(#paint2_linear)"/>
</g>
<g filter="url(#filter3_d)">
<path d="M74.5977 252H72.8662V242.358H74.5977V252ZM74.5977 238.632V240.152H72.8662V238.632H74.5977ZM84.6172 240.258H81.1982V252H79.4141V240.258H76.0654V238.904H84.6172V240.258ZM92.9668 252H91.5957L91.3145 250.62C91.1387 251.224 90.8193 251.628 90.3564 251.833C89.8994 252.032 89.2285 252.132 88.3438 252.132C87.7578 252.132 87.2773 252.076 86.9023 251.965C86.5273 251.848 86.2285 251.654 86.0059 251.385C85.7832 251.115 85.6279 250.787 85.54 250.4C85.458 250.008 85.417 249.504 85.417 248.889C85.417 248.613 85.4639 248.367 85.5576 248.15C85.6572 247.934 85.7891 247.749 85.9531 247.597C86.123 247.444 86.3457 247.312 86.6211 247.201C86.9023 247.09 87.1924 247.002 87.4912 246.938C87.79 246.873 88.1504 246.823 88.5723 246.788C89 246.747 89.416 246.721 89.8203 246.709C90.2246 246.697 90.6963 246.691 91.2354 246.691V244.081C91.2354 243.782 91.0947 243.577 90.8135 243.466C90.5322 243.349 90.0312 243.29 89.3105 243.29C88.8066 243.29 88.4287 243.302 88.1768 243.325C87.9248 243.349 87.7314 243.419 87.5967 243.536C87.4678 243.647 87.3916 243.759 87.3682 243.87C87.3506 243.981 87.3389 244.189 87.333 244.494C87.3271 244.605 87.3242 244.693 87.3242 244.758L85.9795 244.705C85.9678 244.611 85.9619 244.474 85.9619 244.292C85.9619 243.899 86.0176 243.568 86.1289 243.299C86.2461 243.023 86.3955 242.81 86.5771 242.657C86.7588 242.499 87.0078 242.376 87.3242 242.288C87.6406 242.2 87.9541 242.145 88.2646 242.121C88.5752 242.098 88.9619 242.086 89.4248 242.086C90.1279 242.086 90.6992 242.142 91.1387 242.253C91.5781 242.358 91.9385 242.552 92.2197 242.833C92.501 243.114 92.6943 243.475 92.7998 243.914C92.9111 244.348 92.9668 244.916 92.9668 245.619V252ZM91.2354 249.24V247.737C90.0811 247.737 89.1934 247.781 88.5723 247.869C87.9512 247.957 87.5352 248.08 87.3242 248.238C87.1191 248.391 87.0166 248.607 87.0166 248.889C87.0166 248.9 87.0166 248.918 87.0166 248.941C87.0166 249.832 87.0898 250.386 87.2363 250.603C87.3828 250.819 87.8311 250.928 88.5811 250.928C89.2197 250.928 89.7383 250.852 90.1367 250.699C90.5352 250.547 90.8105 250.354 90.9629 250.119C91.1211 249.879 91.2119 249.586 91.2354 249.24ZM102.608 249.328C102.608 249.891 102.547 250.354 102.424 250.717C102.301 251.074 102.096 251.358 101.809 251.569C101.527 251.78 101.182 251.927 100.771 252.009C100.367 252.091 99.8545 252.132 99.2334 252.132C98.8701 252.132 98.5771 252.129 98.3545 252.123C98.1377 252.117 97.8857 252.103 97.5986 252.079C97.3115 252.056 97.083 252.021 96.9131 251.974C96.7432 251.921 96.5586 251.854 96.3594 251.771C96.166 251.684 96.0137 251.575 95.9023 251.446C95.791 251.312 95.6855 251.153 95.5859 250.972C95.4863 250.79 95.416 250.576 95.375 250.33C95.334 250.078 95.3135 249.794 95.3135 249.478L96.6758 249.126C96.7285 249.794 96.79 250.216 96.8604 250.392C96.9658 250.632 97.1855 250.784 97.5195 250.849C97.7715 250.901 98.3018 250.928 99.1104 250.928C99.5967 250.928 99.957 250.907 100.191 250.866C100.432 250.819 100.593 250.734 100.675 250.611C100.909 250.418 101.026 249.759 101.026 248.634C101.026 248.464 100.991 248.32 100.921 248.203C100.851 248.08 100.766 247.989 100.666 247.931C100.566 247.866 100.426 247.813 100.244 247.772C100.068 247.726 99.9072 247.696 99.7607 247.685C99.6201 247.667 99.4326 247.646 99.1982 247.623C98.9639 247.6 98.7764 247.579 98.6357 247.562C98.208 247.515 97.8594 247.471 97.5898 247.43C97.3203 247.383 97.0479 247.315 96.7725 247.228C96.4971 247.14 96.2803 247.031 96.1221 246.902C95.9697 246.773 95.8291 246.606 95.7002 246.401C95.5713 246.196 95.4805 245.95 95.4277 245.663C95.375 245.376 95.3486 245.033 95.3486 244.635C95.3486 244.213 95.3926 243.855 95.4805 243.562C95.5684 243.27 95.6973 243.026 95.8672 242.833C96.0371 242.64 96.2686 242.49 96.5615 242.385C96.8604 242.273 97.1943 242.197 97.5635 242.156C97.9326 242.109 98.3838 242.086 98.917 242.086C99.251 242.086 99.5234 242.092 99.7344 242.104C99.9512 242.109 100.186 242.13 100.438 242.165C100.695 242.194 100.903 242.238 101.062 242.297C101.22 242.355 101.378 242.438 101.536 242.543C101.7 242.648 101.826 242.78 101.914 242.938C102.002 243.091 102.072 243.278 102.125 243.501C102.184 243.724 102.213 243.979 102.213 244.266L101.035 244.626C101.012 244.397 100.988 244.219 100.965 244.09C100.947 243.955 100.903 243.832 100.833 243.721C100.763 243.609 100.689 243.53 100.613 243.483C100.537 243.437 100.405 243.396 100.218 243.36C100.036 243.325 99.8516 243.305 99.6641 243.299C99.4766 243.293 99.207 243.29 98.8555 243.29C98.1055 243.29 97.5957 243.366 97.3262 243.519C97.0625 243.665 96.9307 243.908 96.9307 244.248V245.145C96.9307 245.531 97.0449 245.777 97.2734 245.883C97.5078 245.982 98.1289 246.097 99.1367 246.226C99.2422 246.243 99.3213 246.255 99.374 246.261C99.7783 246.308 100.098 246.352 100.332 246.393C100.572 246.434 100.824 246.489 101.088 246.56C101.352 246.624 101.551 246.703 101.686 246.797C101.826 246.885 101.964 246.999 102.099 247.14C102.239 247.28 102.339 247.453 102.397 247.658C102.462 247.863 102.512 248.101 102.547 248.37C102.588 248.64 102.608 248.959 102.608 249.328ZM112.602 252H110.694L107.337 246.973L106.528 247.878V252H104.788V238.939L106.528 238.799V245.127C106.528 245.273 106.525 245.505 106.52 245.821C106.52 246.138 106.52 246.366 106.52 246.507C106.707 246.308 106.974 246.015 107.319 245.628C107.671 245.241 107.905 244.986 108.022 244.863L110.316 242.358H112.285L108.655 246.217L112.602 252ZM117.392 252L118.042 238.825H119.976L123.755 249.135L127.464 238.825H129.397L130.092 252H128.352L127.895 241.444L124.256 252H123.236L119.422 241.523L119.035 252H117.392ZM136.253 250.919C137.085 250.901 137.662 250.84 137.984 250.734C138.312 250.629 138.477 250.421 138.477 250.11C138.541 249.272 138.573 248.303 138.573 247.201C138.573 246.838 138.559 246.319 138.529 245.646C138.5 244.966 138.485 244.462 138.485 244.134C138.485 244.034 138.468 243.943 138.433 243.861C138.403 243.779 138.351 243.712 138.274 243.659C138.204 243.601 138.131 243.551 138.055 243.51C137.984 243.469 137.882 243.437 137.747 243.413C137.618 243.39 137.507 243.369 137.413 243.352C137.325 243.334 137.196 243.322 137.026 243.316C136.862 243.311 136.733 243.308 136.64 243.308C136.552 243.308 136.42 243.308 136.244 243.308C136.068 243.308 135.934 243.308 135.84 243.308C135.752 243.308 135.623 243.311 135.453 243.316C135.289 243.322 135.16 243.334 135.066 243.352C134.979 243.369 134.867 243.39 134.732 243.413C134.604 243.437 134.501 243.469 134.425 243.51C134.354 243.551 134.281 243.601 134.205 243.659C134.135 243.712 134.082 243.779 134.047 243.861C134.018 243.943 134.003 244.034 134.003 244.134C134.003 244.462 133.988 244.966 133.959 245.646C133.93 246.319 133.915 246.838 133.915 247.201C133.915 248.303 133.947 249.272 134.012 250.11C134.012 250.421 134.182 250.635 134.521 250.752C134.867 250.863 135.444 250.919 136.253 250.919ZM136.235 252.132C135.585 252.132 135.043 252.105 134.609 252.053C134.176 252 133.801 251.886 133.484 251.71C133.174 251.528 132.937 251.338 132.772 251.139C132.608 250.934 132.479 250.614 132.386 250.181C132.292 249.741 132.233 249.308 132.21 248.88C132.192 248.452 132.184 247.857 132.184 247.096C132.184 246.527 132.189 246.053 132.201 245.672C132.219 245.291 132.254 244.919 132.307 244.556C132.359 244.187 132.424 243.891 132.5 243.668C132.582 243.439 132.696 243.226 132.843 243.026C132.995 242.821 133.165 242.666 133.353 242.561C133.54 242.455 133.777 242.364 134.064 242.288C134.357 242.206 134.674 242.153 135.014 242.13C135.359 242.101 135.77 242.086 136.244 242.086C136.719 242.086 137.126 242.101 137.466 242.13C137.812 242.153 138.128 242.206 138.415 242.288C138.708 242.364 138.948 242.455 139.136 242.561C139.323 242.666 139.49 242.821 139.637 243.026C139.789 243.226 139.903 243.439 139.979 243.668C140.062 243.891 140.129 244.187 140.182 244.556C140.234 244.919 140.267 245.291 140.278 245.672C140.296 246.053 140.305 246.527 140.305 247.096C140.305 247.857 140.293 248.452 140.27 248.88C140.252 249.308 140.196 249.741 140.103 250.181C140.009 250.614 139.877 250.934 139.707 251.139C139.543 251.344 139.303 251.534 138.986 251.71C138.676 251.886 138.304 252 137.87 252.053C137.437 252.105 136.892 252.132 136.235 252.132ZM144.427 242.358V251.464C144.427 252.636 144.266 253.459 143.943 253.934C143.627 254.414 143.041 254.654 142.186 254.654C141.928 254.654 141.617 254.631 141.254 254.584L141.21 253.512C141.28 253.506 141.38 253.503 141.509 253.503C141.644 253.503 141.746 253.5 141.816 253.494C141.893 253.494 141.983 253.485 142.089 253.468C142.194 253.45 142.276 253.421 142.335 253.38C142.399 253.339 142.461 253.286 142.52 253.222C142.584 253.157 142.628 253.069 142.651 252.958C142.681 252.847 142.695 252.715 142.695 252.562V242.358H144.427ZM144.436 238.632V240.152H142.687V238.632H144.436ZM148.76 252H147.028V242.358H148.76V252ZM148.76 238.632V240.152H147.028V238.632H148.76ZM155.36 250.778L155.325 252.009C154.833 252.091 154.388 252.132 153.989 252.132C153.562 252.132 153.207 252.085 152.926 251.991C152.65 251.897 152.442 251.748 152.302 251.543C152.161 251.338 152.064 251.112 152.012 250.866C151.959 250.614 151.933 250.295 151.933 249.908V243.343H150.623V242.358H151.933V239.616L153.655 239.476V242.358H155.431V243.343H153.655V249.319C153.655 249.952 153.685 250.362 153.743 250.55C153.808 250.737 153.978 250.831 154.253 250.831C154.522 250.831 154.892 250.813 155.36 250.778ZM161.425 250.919C162.257 250.901 162.834 250.84 163.156 250.734C163.484 250.629 163.648 250.421 163.648 250.11C163.713 249.272 163.745 248.303 163.745 247.201C163.745 246.838 163.73 246.319 163.701 245.646C163.672 244.966 163.657 244.462 163.657 244.134C163.657 244.034 163.64 243.943 163.604 243.861C163.575 243.779 163.522 243.712 163.446 243.659C163.376 243.601 163.303 243.551 163.227 243.51C163.156 243.469 163.054 243.437 162.919 243.413C162.79 243.39 162.679 243.369 162.585 243.352C162.497 243.334 162.368 243.322 162.198 243.316C162.034 243.311 161.905 243.308 161.812 243.308C161.724 243.308 161.592 243.308 161.416 243.308C161.24 243.308 161.105 243.308 161.012 243.308C160.924 243.308 160.795 243.311 160.625 243.316C160.461 243.322 160.332 243.334 160.238 243.352C160.15 243.369 160.039 243.39 159.904 243.413C159.775 243.437 159.673 243.469 159.597 243.51C159.526 243.551 159.453 243.601 159.377 243.659C159.307 243.712 159.254 243.779 159.219 243.861C159.189 243.943 159.175 244.034 159.175 244.134C159.175 244.462 159.16 244.966 159.131 245.646C159.102 246.319 159.087 246.838 159.087 247.201C159.087 248.303 159.119 249.272 159.184 250.11C159.184 250.421 159.354 250.635 159.693 250.752C160.039 250.863 160.616 250.919 161.425 250.919ZM161.407 252.132C160.757 252.132 160.215 252.105 159.781 252.053C159.348 252 158.973 251.886 158.656 251.71C158.346 251.528 158.108 251.338 157.944 251.139C157.78 250.934 157.651 250.614 157.558 250.181C157.464 249.741 157.405 249.308 157.382 248.88C157.364 248.452 157.355 247.857 157.355 247.096C157.355 246.527 157.361 246.053 157.373 245.672C157.391 245.291 157.426 244.919 157.479 244.556C157.531 244.187 157.596 243.891 157.672 243.668C157.754 243.439 157.868 243.226 158.015 243.026C158.167 242.821 158.337 242.666 158.524 242.561C158.712 242.455 158.949 242.364 159.236 242.288C159.529 242.206 159.846 242.153 160.186 242.13C160.531 242.101 160.941 242.086 161.416 242.086C161.891 242.086 162.298 242.101 162.638 242.13C162.983 242.153 163.3 242.206 163.587 242.288C163.88 242.364 164.12 242.455 164.308 242.561C164.495 242.666 164.662 242.821 164.809 243.026C164.961 243.226 165.075 243.439 165.151 243.668C165.233 243.891 165.301 244.187 165.354 244.556C165.406 244.919 165.438 245.291 165.45 245.672C165.468 246.053 165.477 246.527 165.477 247.096C165.477 247.857 165.465 248.452 165.441 248.88C165.424 249.308 165.368 249.741 165.274 250.181C165.181 250.614 165.049 250.934 164.879 251.139C164.715 251.344 164.475 251.534 164.158 251.71C163.848 251.886 163.476 252 163.042 252.053C162.608 252.105 162.063 252.132 161.407 252.132Z" fill="url(#paint3_linear)"/>
</g>
<defs>
<filter id="filter0_i" x="173.298" y="108.076" width="65.0367" height="106.916" filterUnits="userSpaceOnUse" color-interpolation-filters="sRGB">
<feFlood flood-opacity="0" result="BackgroundImageFix"/>
<feBlend mode="normal" in="SourceGraphic" in2="BackgroundImageFix" result="shape"/>
<feColorMatrix in="SourceAlpha" type="matrix" values="0 0 0 0 0 0 0 0 0 0 0 0 0 0 0 0 0 0 127 0" result="hardAlpha"/>
<feOffset dy="4"/>
<feGaussianBlur stdDeviation="2"/>
<feComposite in2="hardAlpha" operator="arithmetic" k2="-1" k3="1"/>
<feColorMatrix type="matrix" values="0 0 0 0 0 0 0 0 0 0 0 0 0 0 0 0 0 0 0.25 0"/>
<feBlend mode="normal" in2="shape" result="effect1_innerShadow"/>
</filter>
<filter id="filter1_i" x="108.984" y="54.0875" width="79.016" height="170.913" filterUnits="userSpaceOnUse" color-interpolation-filters="sRGB">
<feFlood flood-opacity="0" result="BackgroundImageFix"/>
<feBlend mode="normal" in="SourceGraphic" in2="BackgroundImageFix" result="shape"/>
<feColorMatrix in="SourceAlpha" type="matrix" values="0 0 0 0 0 0 0 0 0 0 0 0 0 0 0 0 0 0 127 0" result="hardAlpha"/>
<feOffset dy="4"/>
<feGaussianBlur stdDeviation="2"/>
<feComposite in2="hardAlpha" operator="arithmetic" k2="-1" k3="1"/>
<feColorMatrix type="matrix" values="0 0 0 0 0 0 0 0 0 0 0 0 0 0 0 0 0 0 0.25 0"/>
<feBlend mode="normal" in2="shape" result="effect1_innerShadow"/>
</filter>
<filter id="filter2_i" x="0" y="0" width="187.97" height="248.106" filterUnits="userSpaceOnUse" color-interpolation-filters="sRGB">
<feFlood flood-opacity="0" result="BackgroundImageFix"/>
<feBlend mode="normal" in="SourceGraphic" in2="BackgroundImageFix" result="shape"/>
<feColorMatrix in="SourceAlpha" type="matrix" values="0 0 0 0 0 0 0 0 0 0 0 0 0 0 0 0 0 0 127 0" result="hardAlpha"/>
<feOffset dy="4"/>
<feGaussianBlur stdDeviation="2"/>
<feComposite in2="hardAlpha" operator="arithmetic" k2="-1" k3="1"/>
<feColorMatrix type="matrix" values="0 0 0 0 0 0 0 0 0 0 0 0 0 0 0 0 0 0 0.25 0"/>
<feBlend mode="normal" in2="shape" result="effect1_innerShadow"/>
</filter>
<filter id="filter3_d" x="68.8662" y="238.632" width="100.61" height="24.0225" filterUnits="userSpaceOnUse" color-interpolation-filters="sRGB">
<feFlood flood-opacity="0" result="BackgroundImageFix"/>
<feColorMatrix in="SourceAlpha" type="matrix" values="0 0 0 0 0 0 0 0 0 0 0 0 0 0 0 0 0 0 127 0"/>
<feOffset dy="4"/>
<feGaussianBlur stdDeviation="2"/>
<feColorMatrix type="matrix" values="0 0 0 0 0 0 0 0 0 0 0 0 0 0 0 0 0 0 0.25 0"/>
<feBlend mode="normal" in2="BackgroundImageFix" result="effect1_dropShadow"/>
<feBlend mode="normal" in="SourceGraphic" in2="effect1_dropShadow" result="shape"/>
</filter>
<linearGradient id="paint0_linear" x1="181.348" y1="181.223" x2="237.484" y2="108.076" gradientUnits="userSpaceOnUse">
<stop stop-color="#212724"/>
<stop offset="1" stop-color="#212724" stop-opacity="0.05"/>
</linearGradient>
<linearGradient id="paint1_linear" x1="146.5" y1="180" x2="176.5" y2="60" gradientUnits="userSpaceOnUse">
<stop stop-color="#212724"/>
<stop offset="1" stop-color="#212724" stop-opacity="0.05"/>
</linearGradient>
<linearGradient id="paint2_linear" x1="42.5272" y1="244.106" x2="100.364" y2="-4.25272" gradientUnits="userSpaceOnUse">
<stop stop-color="#212724"/>
<stop offset="1" stop-color="#212724" stop-opacity="0.05"/>
</linearGradient>
<linearGradient id="paint3_linear" x1="167.5" y1="239.5" x2="68" y2="252" gradientUnits="userSpaceOnUse">
<stop stop-color="#00FF85" stop-opacity="0.5"/>
<stop offset="0.509296" stop-color="#20975E" stop-opacity="0.47"/>
<stop offset="0.541622" stop-color="#3B433F"/>
<stop offset="1" stop-color="#3B433F" stop-opacity="0.994475"/>
</linearGradient>
</defs>
</svg>
