<?xml version="1.0" encoding="UTF-8" standalone="no"?>
<svg
   xmlns:dc="http://purl.org/dc/elements/1.1/"
   xmlns:cc="http://creativecommons.org/ns#"
   xmlns:rdf="http://www.w3.org/1999/02/22-rdf-syntax-ns#"
   xmlns:svg="http://www.w3.org/2000/svg"
   xmlns="http://www.w3.org/2000/svg"
   xmlns:sodipodi="http://sodipodi.sourceforge.net/DTD/sodipodi-0.dtd"
   xmlns:inkscape="http://www.inkscape.org/namespaces/inkscape"
   width="50"
   height="50"
   viewBox="0 0 50 50"
   version="1.1"
   id="svg12518"
   sodipodi:docname="choice.svg"
   style="fill:none"
   inkscape:version="0.92.3 (2405546, 2018-03-11)">
  <metadata
     id="metadata12522">
    <rdf:RDF>
      <cc:Work
         rdf:about="">
        <dc:format>image/svg+xml</dc:format>
        <dc:type
           rdf:resource="http://purl.org/dc/dcmitype/StillImage" />
        <dc:title></dc:title>
      </cc:Work>
    </rdf:RDF>
  </metadata>
  <sodipodi:namedview
     pagecolor="#ffffff"
     bordercolor="#666666"
     borderopacity="1"
     objecttolerance="10"
     gridtolerance="10"
     guidetolerance="10"
     inkscape:pageopacity="0"
     inkscape:pageshadow="2"
     inkscape:window-width="1920"
     inkscape:window-height="1029"
     id="namedview12520"
     showgrid="false"
     fit-margin-top="0"
     fit-margin-left="0"
     fit-margin-right="0"
     fit-margin-bottom="0"
     inkscape:zoom="8.137931"
     inkscape:cx="7.8541345"
     inkscape:cy="35.420831"
     inkscape:window-x="0"
     inkscape:window-y="27"
     inkscape:window-maximized="1"
     inkscape:current-layer="svg12518"
     inkscape:showpageshadow="false"
     inkscape:pagecheckerboard="false" />
  <path
     style="fill:#4d7962;stroke-width:1.01253164"
     inkscape:connector-curvature="0"
     id="path12478"
     d="m 23.987484,0.27130759 c 0.626554,-0.36174312 1.398508,-0.36174312 2.025063,-1.02e-6 L 45.909401,11.758731 c 0.626554,0.361778 1.012531,1.030352 1.012531,1.753806 v 22.97495 c 0,0.723454 -0.385977,1.392029 -1.012531,1.753806 L 26.012547,49.728667 c -0.626555,0.361777 -1.398509,0.361777 -2.025063,0 L 4.0905996,38.241293 C 3.4640349,37.879516 3.078068,37.210941 3.078068,36.487487 v -22.97495 c 0,-0.723454 0.3859669,-1.392028 1.0125316,-1.753806 z" />
  <path
     style="fill:#def4e8"
     inkscape:connector-curvature="0"
     id="path12482"
     d="m 40.679885,19.613 c -0.2692,-0.2644 -0.6393,-0.3635 -1.0094,-0.2974 l -7.6037,1.7846 c -0.3701,0.0992 -0.6729,0.3636 -0.7738,0.7271 -0.1009,0.3635 0,0.7601 0.2692,1.0245 l 1.7495,1.7186 -5.7196,5.6183 c -0.3028,-0.1652 -0.6393,-0.2974 -0.9757,-0.3966 V 18.1258 h 2.4897 c 0.4037,0 0.7402,-0.1983 0.942,-0.5288 0.2019,-0.3305 0.1683,-0.7601 -0.0336,-1.0576 l -4.1047,-6.5436602 c -0.2018,-0.29745 -0.5383,-0.49574 -0.9084,-0.49574 -0.3701,0 -0.7065,0.19829 -0.9084,0.49574 l -4.1046,6.5106602 c -0.2019,0.3305 -0.2019,0.7271 -0.0337,1.0576 0.2019,0.3305 0.5383,0.5287 0.9421,0.5287 h 2.4897 v 11.6994 c -0.3365,0.0992 -0.6729,0.2314 -0.9757,0.3966 l -5.7196,-5.6183 1.7495,-1.7186 c 0.2692,-0.2644 0.3701,-0.661 0.2692,-1.0245 -0.101,-0.3635 -0.4038,-0.661 -0.7739,-0.7271 l -7.6037,-1.7516 c -0.3700997,-0.0991 -0.7401997,0.0331 -1.0092997,0.2975 -0.2692,0.2643 -0.3701,0.6279 -0.3028,0.9914 l 1.7831997,7.4691 c 0.1009,0.3635 0.37,0.661 0.7401,0.7601 0.101,0.0331 0.2019,0.0331 0.3028,0.0331 0.2692,0 0.572,-0.0992 0.7739,-0.2975 l 1.7495,-1.7185 5.7196,5.6183 c -0.4037,0.7602 -0.6392,1.6194 -0.6392,2.5448 0,3.0075 2.4897,5.4531 5.5513,5.4531 3.0617,0 5.5514,-2.4456 5.5514,-5.4531 0,-0.9254 -0.2355,-1.7846 -0.6392,-2.5448 l 5.7196,-5.6183 1.7495,1.7185 c 0.2019,0.1983 0.471,0.2975 0.7738,0.2975 0.101,0 0.2019,0 0.3028,-0.0331 0.3701,-0.0991 0.6729,-0.3966 0.7402,-0.7601 l 1.7832,-7.4691 c 0.0673,-0.3966 -0.0673,-0.7601 -0.3028,-1.0245 z m -15.6785,17.6812 c -1.2785,0 -2.3215,-1.0245 -2.3215,-2.2803 0,-1.2559 1.043,-2.2804 2.3215,-2.2804 1.2785,0 2.3215,1.0245 2.3215,2.2804 0,1.2558 -1.043,2.2803 -2.3215,2.2803 z" />
  <defs
     id="defs12516" />
</svg>
