<svg width="52" height="58" viewBox="0 0 52 58" fill="none" xmlns="http://www.w3.org/2000/svg">
<g filter="url(#filter0_d)">
<path d="M25 0.577351C25.6188 0.220085 26.3812 0.220085 27 0.57735L46.6506 11.9226C47.2694 12.2799 47.6506 12.9402 47.6506 13.6547V36.3453C47.6506 37.0598 47.2694 37.7201 46.6506 38.0774L27 49.4226C26.3812 49.7799 25.6188 49.7799 25 49.4226L5.34937 38.0774C4.73056 37.7201 4.34937 37.0598 4.34937 36.3453V13.6547C4.34937 12.9402 4.73056 12.2799 5.34937 11.9226L25 0.577351Z" fill="#4D7962"/>
</g>
<g filter="url(#filter1_d)">
<path d="M41.6799 19.113C41.4107 18.8486 41.0406 18.7495 40.6705 18.8156L33.0668 20.6002C32.6967 20.6994 32.3939 20.9638 32.293 21.3273C32.1921 21.6908 32.293 22.0874 32.5622 22.3518L34.3117 24.0704L28.5921 29.6887C28.2893 29.5235 27.9528 29.3913 27.6164 29.2921V17.6258H30.1061C30.5098 17.6258 30.8463 17.4275 31.0481 17.097C31.25 16.7665 31.2164 16.3369 31.0145 16.0394L26.9098 9.49574C26.708 9.19829 26.3715 9 26.0014 9C25.6313 9 25.2949 9.19829 25.093 9.49574L20.9884 16.0064C20.7865 16.3369 20.7865 16.7335 20.9547 17.064C21.1566 17.3945 21.493 17.5927 21.8968 17.5927H24.3865V29.2921C24.05 29.3913 23.7136 29.5235 23.4108 29.6887L17.6912 24.0704L19.4407 22.3518C19.7099 22.0874 19.8108 21.6908 19.7099 21.3273C19.6089 20.9638 19.3061 20.6663 18.936 20.6002L11.3323 18.8486C10.9622 18.7495 10.5921 18.8817 10.323 19.1461C10.0538 19.4104 9.9529 19.774 10.0202 20.1375L11.8034 27.6066C11.9043 27.9701 12.1734 28.2676 12.5435 28.3667C12.6445 28.3998 12.7454 28.3998 12.8463 28.3998C13.1155 28.3998 13.4183 28.3006 13.6202 28.1023L15.3697 26.3838L21.0893 32.0021C20.6856 32.7623 20.4501 33.6215 20.4501 34.5469C20.4501 37.5544 22.9398 40 26.0014 40C29.0631 40 31.5528 37.5544 31.5528 34.5469C31.5528 33.6215 31.3173 32.7623 30.9136 32.0021L36.6332 26.3838L38.3827 28.1023C38.5846 28.3006 38.8537 28.3998 39.1565 28.3998C39.2575 28.3998 39.3584 28.3998 39.4593 28.3667C39.8294 28.2676 40.1322 27.9701 40.1995 27.6066L41.9827 20.1375C42.05 19.7409 41.9154 19.3774 41.6799 19.113ZM26.0014 36.7942C24.7229 36.7942 23.6799 35.7697 23.6799 34.5139C23.6799 33.258 24.7229 32.2335 26.0014 32.2335C27.2799 32.2335 28.3229 33.258 28.3229 34.5139C28.3229 35.7697 27.2799 36.7942 26.0014 36.7942Z" fill="#DEF4E8"/>
</g>
<defs>
<filter id="filter0_d" x="0.349365" y="0.309402" width="51.3013" height="57.3812" filterUnits="userSpaceOnUse" color-interpolation-filters="sRGB">
<feFlood flood-opacity="0" result="BackgroundImageFix"/>
<feColorMatrix in="SourceAlpha" type="matrix" values="0 0 0 0 0 0 0 0 0 0 0 0 0 0 0 0 0 0 127 0"/>
<feOffset dy="4"/>
<feGaussianBlur stdDeviation="2"/>
<feColorMatrix type="matrix" values="0 0 0 0 0 0 0 0 0 0 0 0 0 0 0 0 0 0 0.25 0"/>
<feBlend mode="normal" in2="BackgroundImageFix" result="effect1_dropShadow"/>
<feBlend mode="normal" in="SourceGraphic" in2="effect1_dropShadow" result="shape"/>
</filter>
<filter id="filter1_d" x="6" y="9" width="40" height="39" filterUnits="userSpaceOnUse" color-interpolation-filters="sRGB">
<feFlood flood-opacity="0" result="BackgroundImageFix"/>
<feColorMatrix in="SourceAlpha" type="matrix" values="0 0 0 0 0 0 0 0 0 0 0 0 0 0 0 0 0 0 127 0"/>
<feOffset dy="4"/>
<feGaussianBlur stdDeviation="2"/>
<feColorMatrix type="matrix" values="0 0 0 0 0 0 0 0 0 0 0 0 0 0 0 0 0 0 0.25 0"/>
<feBlend mode="normal" in2="BackgroundImageFix" result="effect1_dropShadow"/>
<feBlend mode="normal" in="SourceGraphic" in2="effect1_dropShadow" result="shape"/>
</filter>
</defs>
</svg>
