<?xml version="1.0" encoding="UTF-8" standalone="no"?>
<svg
   xmlns:dc="http://purl.org/dc/elements/1.1/"
   xmlns:cc="http://creativecommons.org/ns#"
   xmlns:rdf="http://www.w3.org/1999/02/22-rdf-syntax-ns#"
   xmlns:svg="http://www.w3.org/2000/svg"
   xmlns="http://www.w3.org/2000/svg"
   xmlns:sodipodi="http://sodipodi.sourceforge.net/DTD/sodipodi-0.dtd"
   xmlns:inkscape="http://www.inkscape.org/namespaces/inkscape"
   width="50"
   height="50"
   viewBox="0 0 50 50"
   version="1.1"
   id="svg12518"
   sodipodi:docname="join.svg"
   style="fill:none"
   inkscape:version="0.92.3 (2405546, 2018-03-11)">
  <metadata
     id="metadata12522">
    <rdf:RDF>
      <cc:Work
         rdf:about="">
        <dc:format>image/svg+xml</dc:format>
        <dc:type
           rdf:resource="http://purl.org/dc/dcmitype/StillImage" />
        <dc:title></dc:title>
      </cc:Work>
    </rdf:RDF>
  </metadata>
  <sodipodi:namedview
     pagecolor="#ffffff"
     bordercolor="#666666"
     borderopacity="1"
     objecttolerance="10"
     gridtolerance="10"
     guidetolerance="10"
     inkscape:pageopacity="0"
     inkscape:pageshadow="2"
     inkscape:window-width="1920"
     inkscape:window-height="1029"
     id="namedview12520"
     showgrid="false"
     fit-margin-top="0"
     fit-margin-left="0"
     fit-margin-right="0"
     fit-margin-bottom="0"
     inkscape:zoom="11.508772"
     inkscape:cx="6.5265236"
     inkscape:cy="21.070481"
     inkscape:window-x="0"
     inkscape:window-y="27"
     inkscape:window-maximized="1"
     inkscape:current-layer="svg12518"
     inkscape:showpageshadow="false"
     inkscape:pagecheckerboard="false" />
  <path
     style="fill:#4d7962;stroke-width:1.01253164"
     inkscape:connector-curvature="0"
     id="path12478"
     d="m 23.987484,0.27130759 c 0.626554,-0.36174312 1.398508,-0.36174312 2.025063,-1.02e-6 L 45.909401,11.758731 c 0.626554,0.361778 1.012531,1.030352 1.012531,1.753806 v 22.97495 c 0,0.723454 -0.385977,1.392029 -1.012531,1.753806 L 26.012547,49.728667 c -0.626555,0.361777 -1.398509,0.361777 -2.025063,0 L 4.0905996,38.241293 C 3.4640349,37.879516 3.078068,37.210941 3.078068,36.487487 v -22.97495 c 0,-0.723454 0.3859669,-1.392028 1.0125316,-1.753806 z" />
  <defs
     id="defs12516" />
  <path
     style="clip-rule:evenodd;fill:#def4e8;fill-rule:evenodd"
     inkscape:connector-curvature="0"
     id="path13163"
     d="m 24.9999,9.89955 c 1.6568,0 3,1.3431 3,3 0,1.1136 -0.6068,2.0855 -1.5077,2.6031 v 9.7942 l 4.6053,-4.6054 c -0.2711,-1.003 -0.0129,-2.1193 0.7746,-2.9067 1.1715,-1.1716 3.071,-1.1716 4.2426,0 1.1716,1.1715 1.1716,3.071 0,4.2426 -0.7874,0.7874 -1.9037,1.0456 -2.9068,0.7746 l -6.7157,6.7157 v 2.3819 h 2.4679 c 0.3896,0 0.7142,0.07 0.9089,0.3888 0.1948,0.3189 0.1623,0.7334 -0.0324,1.0204 l -3.9603,6.3134 c -0.1947,0.287 -0.5193,0.4783 -0.8764,0.4783 -0.3571,0 -0.6815,-0.1913 -0.8763,-0.4783 l -3.9602,-6.3134 c -0.1948,-0.287 -0.2272,-0.7015 -0.0325,-1.0204 0.1948,-0.3189 0.5194,-0.3888 0.909,-0.3888 h 2.4679 v -2.3819 l -6.7157,-6.7158 c -1.0031,0.2711 -2.1194,0.0129 -2.9068,-0.7745 -1.1716,-1.1716 -1.1716,-3.0711 0,-4.2427 1.1716,-1.1715 3.071,-1.1715 4.2426,0 0.7875,0.7875 1.0456,1.9037 0.7746,2.9068 l 4.6053,4.6053 v -9.7941 c -0.901,-0.5176 -1.5077,-1.4895 -1.5077,-2.6031 0,-1.6569 1.3429,-3 2.9998,-3 z m 0.0067,4.25 c 0.6903,0 1.25,-0.5597 1.25,-1.25 0,-0.6904 -0.5597,-1.25 -1.25,-1.25 -0.6904,0 -1.25,0.5596 -1.25,1.25 0,0.6903 0.5596,1.25 1.25,1.25 z m -7.75,5.75 c 0,0.6903 -0.5597,1.25 -1.25,1.25 -0.6904,0 -1.25,-0.5597 -1.25,-1.25 0,-0.6904 0.5596,-1.25 1.25,-1.25 0.6903,0 1.25,0.5596 1.25,1.25 z m 16.75,1.25 c 0.6903,0 1.25,-0.5597 1.25,-1.25 0,-0.6904 -0.5597,-1.25 -1.25,-1.25 -0.6904,0 -1.25,0.5596 -1.25,1.25 0,0.6903 0.5596,1.25 1.25,1.25 z" />
</svg>
