<?xml version="1.0" encoding="UTF-8" standalone="no"?>
<svg
   xmlns:dc="http://purl.org/dc/elements/1.1/"
   xmlns:cc="http://creativecommons.org/ns#"
   xmlns:rdf="http://www.w3.org/1999/02/22-rdf-syntax-ns#"
   xmlns:svg="http://www.w3.org/2000/svg"
   xmlns="http://www.w3.org/2000/svg"
   xmlns:sodipodi="http://sodipodi.sourceforge.net/DTD/sodipodi-0.dtd"
   xmlns:inkscape="http://www.inkscape.org/namespaces/inkscape"
   width="43.301231"
   height="49.381172"
   viewBox="0 0 43.301231 49.381172"
   version="1.1"
   id="svg12518"
   sodipodi:docname="parallel-split.svg"
   style="fill:none"
   inkscape:version="0.92.3 (2405546, 2018-03-11)">
  <metadata
     id="metadata12522">
    <rdf:RDF>
      <cc:Work
         rdf:about="">
        <dc:format>image/svg+xml</dc:format>
        <dc:type
           rdf:resource="http://purl.org/dc/dcmitype/StillImage" />
        <dc:title />
      </cc:Work>
    </rdf:RDF>
  </metadata>
  <sodipodi:namedview
     pagecolor="#ffffff"
     bordercolor="#666666"
     borderopacity="1"
     objecttolerance="10"
     gridtolerance="10"
     guidetolerance="10"
     inkscape:pageopacity="0"
     inkscape:pageshadow="2"
     inkscape:window-width="1920"
     inkscape:window-height="1032"
     id="namedview12520"
     showgrid="false"
     fit-margin-top="0"
     fit-margin-left="0"
     fit-margin-right="0"
     fit-margin-bottom="0"
     inkscape:zoom="16.275862"
     inkscape:cx="19.384908"
     inkscape:cy="20.781321"
     inkscape:window-x="0"
     inkscape:window-y="27"
     inkscape:window-maximized="1"
     inkscape:current-layer="svg12518"
     inkscape:showpageshadow="false"
     inkscape:pagecheckerboard="false" />
  <path
     style="fill:#4d7962;fill-opacity:1"
     inkscape:connector-curvature="0"
     id="path12478"
     d="m 20.65063,0.26794963 c 0.6188,-0.357266 1.3812,-0.357266 2,-10e-7 L 42.30123,11.613199 c 0.6188,0.3573 1,1.0176 1,1.7321 v 22.6906 c 0,0.7145 -0.3812,1.3748 -1,1.7321 l -19.6506,11.3452 c -0.6188,0.3573 -1.3812,0.3573 -2,0 L 1,37.767999 c -0.61881,-0.3573 -1,-1.0176 -1,-1.7321 v -22.6906 c 0,-0.7145 0.38119,-1.3748 1,-1.7321 z" />
  <defs
     id="defs12516" />
  <g
     id="g2803">
    <path
       d="m 17.479916,32.144786 c 0,2.2313 1.8706,4.0458 4.1708,4.0458 2.3002,0 4.1708,-1.8145 4.1708,-4.0458 0,-1.8479 -1.2828,-3.4098 -3.0301,-3.8922 -0.3627,-0.1001 -0.7453,-0.1537 -1.1407,-0.1537 -2.3002,0 -4.1708,1.8145 -4.1708,4.0459 z m 2.4267,-0.0246 c 0,0.9318 0.7836,1.6919 1.7441,1.6919 0.9605,0 1.7441,-0.7601 1.7441,-1.6919 0,-0.9317 -0.7836,-1.6919 -1.7441,-1.6919 -0.9605,0 -1.7441,0.7602 -1.7441,1.6919 z"
       id="path2070"
       inkscape:connector-curvature="0"
       style="clip-rule:evenodd;fill:#def4e8;fill-rule:evenodd" />
    <path
       d="m 22.864016,19.590386 h 1.8705 c 0.3034,0 0.5561,-0.1471 0.7078,-0.3923 0.1517,-0.2452 0.1264,-0.564 -0.0253,-0.7847 l -3.0838,-4.855 c -0.1517,-0.2207 -0.4044,-0.3678 -0.6825,-0.3678 -0.278,0 -0.5308,0.1471 -0.6825,0.3678 l -3.0838,4.8305 c -0.1517,0.2452 -0.1517,0.5394 -0.0253,0.7846 0.1517,0.2452 0.4044,0.3924 0.7078,0.3924 h 1.8705 l -2e-4,3.2699 h -6.9285 c -0.2505,0 -0.7513,-0.1484 -0.7513,-0.742 v -2.5279 h 1.8705 c 0.3033,0 0.5561,-0.1472 0.7078,-0.3924 0.1264,-0.2452 0.1264,-0.5394 -0.0253,-0.7846 l -3.0838,-4.8305 c -0.1517,-0.2207 -0.4045,-0.3678 -0.6825,-0.3678 -0.2781,0 -0.5308,0.1471 -0.6825,0.3678 l -3.0838003,4.855 c -0.1517,0.2207 -0.177,0.5395 -0.0253,0.7847 0.1517,0.2452 0.4044,0.3923 0.7078,0.3923 h 1.8705003 v 2.5034 c 0,1.0543 0.6356,3.1628 3.1779,3.1628 h 6.9285 l 2e-4,3.0168 c 0.3841,-0.1134 0.7915,-0.1745 1.2133,-0.1745 0.3954,0 0.778,0.0536 1.1407,0.1537 0.0243,0.0067 0.0485,0.0137 0.0726,0.0208 v -3.0168 h 6.9285 c 2.5423,0 3.1779,-2.1085 3.1779,-3.1628 v -2.5034 h 1.8705 c 0.3034,0 0.5561,-0.1471 0.7078,-0.3923 0.1517,-0.2452 0.1264,-0.564 -0.0253,-0.7847 l -3.0838,-4.855 c -0.1517,-0.2207 -0.4044,-0.3678 -0.6825,-0.3678 -0.278,0 -0.5308,0.1471 -0.6825,0.3678 l -3.0838,4.8305 c -0.1517,0.2452 -0.1517,0.5394 -0.0253,0.7846 0.1517,0.2452 0.4044,0.3924 0.7078,0.3924 h 1.8705 v 2.5279 c 0,0.5936 -0.5009,0.742 -0.7513,0.742 h -6.9285 z"
       id="path2072"
       inkscape:connector-curvature="0"
       style="fill:#def4e8" />
  </g>
</svg>
