<svg width="52" height="58" viewBox="0 0 52 58" fill="none" xmlns="http://www.w3.org/2000/svg">
<g filter="url(#filter0_d)">
<path d="M25 0.577351C25.6188 0.220085 26.3812 0.220085 27 0.57735L46.6506 11.9226C47.2694 12.2799 47.6506 12.9402 47.6506 13.6547V36.3453C47.6506 37.0598 47.2694 37.7201 46.6506 38.0774L27 49.4226C26.3812 49.7799 25.6188 49.7799 25 49.4226L5.34937 38.0774C4.73056 37.7201 4.34937 37.0598 4.34937 36.3453V13.6547C4.34937 12.9402 4.73056 12.2799 5.34937 11.9226L25 0.577351Z" fill="#4D7962"/>
</g>
<g filter="url(#filter1_d)">
<path fill-rule="evenodd" clip-rule="evenodd" d="M21.8293 32.9542C21.8293 35.1855 23.6999 37 26.0001 37C28.3003 37 30.1709 35.1855 30.1709 32.9542C30.1709 31.1063 28.8881 29.5444 27.1408 29.062C26.7781 28.9619 26.3955 28.9083 26.0001 28.9083C23.6999 28.9083 21.8293 30.7228 21.8293 32.9542ZM24.256 32.9296C24.256 33.8614 25.0396 34.6215 26.0001 34.6215C26.9606 34.6215 27.7442 33.8614 27.7442 32.9296C27.7442 31.9979 26.9606 31.2377 26.0001 31.2377C25.0396 31.2377 24.256 31.9979 24.256 32.9296Z" fill="#DEF4E8"/>
<path d="M27.2134 20.3998H29.0839C29.3873 20.3998 29.64 20.2527 29.7917 20.0075C29.9434 19.7623 29.9181 19.4435 29.7664 19.2228L26.6826 14.3678C26.5309 14.1471 26.2782 14 26.0001 14C25.7221 14 25.4693 14.1471 25.3176 14.3678L22.2338 19.1983C22.0821 19.4435 22.0821 19.7377 22.2085 19.9829C22.3602 20.2281 22.6129 20.3753 22.9163 20.3753H24.7868L24.7866 23.6452H17.8581C17.6076 23.6452 17.1068 23.4968 17.1068 22.9032V20.3753H18.9773C19.2806 20.3753 19.5334 20.2281 19.6851 19.9829C19.8115 19.7377 19.8115 19.4435 19.6598 19.1983L16.576 14.3678C16.4243 14.1471 16.1715 14 15.8935 14C15.6154 14 15.3627 14.1471 15.211 14.3678L12.1272 19.2228C11.9755 19.4435 11.9502 19.7623 12.1019 20.0075C12.2536 20.2527 12.5063 20.3998 12.8097 20.3998H14.6802V22.9032C14.6802 23.9575 15.3158 26.066 17.8581 26.066H24.7866L24.7868 29.0828C25.1709 28.9694 25.5783 28.9083 26.0001 28.9083C26.3955 28.9083 26.7781 28.9619 27.1408 29.062C27.1651 29.0687 27.1893 29.0757 27.2134 29.0828V26.066H34.1419C36.6842 26.066 37.3198 23.9575 37.3198 22.9032V20.3998H39.1903C39.4937 20.3998 39.7464 20.2527 39.8981 20.0075C40.0498 19.7623 40.0245 19.4435 39.8728 19.2228L36.789 14.3678C36.6373 14.1471 36.3846 14 36.1065 14C35.8285 14 35.5757 14.1471 35.424 14.3678L32.3402 19.1983C32.1885 19.4435 32.1885 19.7377 32.3149 19.9829C32.4666 20.2281 32.7193 20.3753 33.0227 20.3753H34.8932V22.9032C34.8932 23.4968 34.3923 23.6452 34.1419 23.6452H27.2134V20.3998Z" fill="#DEF4E8"/>
</g>
<defs>
<filter id="filter0_d" x="0.349365" y="0.309402" width="51.3013" height="57.3812" filterUnits="userSpaceOnUse" color-interpolation-filters="sRGB">
<feFlood flood-opacity="0" result="BackgroundImageFix"/>
<feColorMatrix in="SourceAlpha" type="matrix" values="0 0 0 0 0 0 0 0 0 0 0 0 0 0 0 0 0 0 127 0"/>
<feOffset dy="4"/>
<feGaussianBlur stdDeviation="2"/>
<feColorMatrix type="matrix" values="0 0 0 0 0 0 0 0 0 0 0 0 0 0 0 0 0 0 0.25 0"/>
<feBlend mode="normal" in2="BackgroundImageFix" result="effect1_dropShadow"/>
<feBlend mode="normal" in="SourceGraphic" in2="effect1_dropShadow" result="shape"/>
</filter>
<filter id="filter1_d" x="8" y="14" width="36" height="31" filterUnits="userSpaceOnUse" color-interpolation-filters="sRGB">
<feFlood flood-opacity="0" result="BackgroundImageFix"/>
<feColorMatrix in="SourceAlpha" type="matrix" values="0 0 0 0 0 0 0 0 0 0 0 0 0 0 0 0 0 0 127 0"/>
<feOffset dy="4"/>
<feGaussianBlur stdDeviation="2"/>
<feColorMatrix type="matrix" values="0 0 0 0 0 0 0 0 0 0 0 0 0 0 0 0 0 0 0.25 0"/>
<feBlend mode="normal" in2="BackgroundImageFix" result="effect1_dropShadow"/>
<feBlend mode="normal" in="SourceGraphic" in2="effect1_dropShadow" result="shape"/>
</filter>
</defs>
</svg>
