<?xml version="1.0" encoding="UTF-8" standalone="no"?>
<svg
   xmlns:dc="http://purl.org/dc/elements/1.1/"
   xmlns:cc="http://creativecommons.org/ns#"
   xmlns:rdf="http://www.w3.org/1999/02/22-rdf-syntax-ns#"
   xmlns:svg="http://www.w3.org/2000/svg"
   xmlns="http://www.w3.org/2000/svg"
   xmlns:sodipodi="http://sodipodi.sourceforge.net/DTD/sodipodi-0.dtd"
   xmlns:inkscape="http://www.inkscape.org/namespaces/inkscape"
   data-name="Layer 1"
   viewBox="0 0 50 50"
   x="0px"
   y="0px"
   version="1.1"
   id="svg16"
   sodipodi:docname="pattern-match.svg"
   width="50"
   height="50"
   inkscape:version="0.92.3 (2405546, 2018-03-11)">
  <metadata
     id="metadata22">
    <rdf:RDF>
      <cc:Work
         rdf:about="">
        <dc:format>image/svg+xml</dc:format>
        <dc:type
           rdf:resource="http://purl.org/dc/dcmitype/StillImage" />
        <dc:title>Puzzle</dc:title>
      </cc:Work>
    </rdf:RDF>
  </metadata>
  <defs
     id="defs20" />
  <sodipodi:namedview
     pagecolor="#ffffff"
     bordercolor="#666666"
     borderopacity="1"
     objecttolerance="10"
     gridtolerance="10"
     guidetolerance="10"
     inkscape:pageopacity="0"
     inkscape:pageshadow="2"
     inkscape:window-width="1920"
     inkscape:window-height="1029"
     id="namedview18"
     showgrid="false"
     inkscape:zoom="11.8"
     inkscape:cx="32.146184"
     inkscape:cy="23.315814"
     inkscape:window-x="0"
     inkscape:window-y="27"
     inkscape:window-maximized="1"
     inkscape:current-layer="svg16" />
  <title
     id="title2">Puzzle</title>
  <path
     style="fill:#4d7962;fill-opacity:1;stroke-width:1.01253164"
     inkscape:connector-curvature="0"
     id="path12478"
     d="m 23.987483,0.27130744 c 0.626555,-0.361743 1.398509,-0.361743 2.025063,-1e-6 L 45.909401,11.758731 c 0.626554,0.361778 1.012531,1.030352 1.012531,1.753806 v 22.97495 c 0,0.723454 -0.385977,1.392028 -1.012531,1.753806 L 26.012546,49.728667 c -0.626554,0.361777 -1.398508,0.361777 -2.025063,0 L 4.0905995,38.241293 c -0.626565,-0.361778 -1.012532,-1.030352 -1.012532,-1.753806 v -22.97495 c 0,-0.723454 0.385967,-1.392028 1.012532,-1.753806 z" />
  <path
     d="m 34.846372,22.746374 c -0.449773,0 -1.183728,0.22561 -1.794032,0.603795 -0.14896,0.09256 -0.336245,0.0969 -0.489544,0.01157 -0.152576,-0.08533 -0.247303,-0.24658 -0.247303,-0.421572 V 19.85394 c 0,-0.798311 -0.647905,-1.446217 -1.446217,-1.446217 h -3.834644 c -0.173546,0 -0.333353,-0.09328 -0.419402,-0.243687 -0.08605,-0.150407 -0.0846,-0.335522 0.0043,-0.485206 0.396987,-0.668152 0.634166,-1.487434 0.634166,-1.801986 0,-1.797647 -1.45634,-3.253988 -3.253988,-3.253988 -1.797648,0 -3.253987,1.456341 -3.253987,3.253988 0,0.314552 0.237178,1.133834 0.634166,1.801986 0.08894,0.149684 0.09039,0.334799 0.0051,0.485929 -0.08605,0.150407 -0.24658,0.242964 -0.420126,0.242964 h -3.834644 c -0.798312,0 -1.446217,0.647906 -1.446217,1.446217 v 12.292843 c 0,0.798312 0.647905,1.446217 1.446217,1.446217 h 3.834644 c 0.173546,0 0.333353,-0.09328 0.419402,-0.243688 0.08605,-0.150406 0.0846,-0.336245 -0.0043,-0.485206 -0.396987,-0.668875 -0.634166,-1.487434 -0.634166,-1.801986 0,-1.797647 1.456339,-3.253987 3.253987,-3.253987 1.797648,0 3.253988,1.45634 3.253988,3.253987 0,0.314552 -0.237179,1.133111 -0.634166,1.801986 -0.08894,0.149684 -0.09039,0.3348 -0.0043,0.485206 0.08533,0.15113 0.245856,0.243688 0.419402,0.243688 h 3.834644 c 0.798312,0 1.446217,-0.647905 1.446217,-1.446217 v -3.086227 c 0,-0.174992 0.09473,-0.336968 0.248026,-0.421572 0.152576,-0.08533 0.339861,-0.08099 0.488821,0.01085 0.610304,0.378908 1.344259,0.604518 1.794032,0.604518 1.797648,0 3.253988,-1.45634 3.253988,-3.253987 0,-1.797648 -1.45634,-3.253988 -3.253988,-3.253988 z"
     id="path2-3"
     inkscape:connector-curvature="0"
     style="display:inline;fill:#def4e8;fill-opacity:1;stroke-width:0.72310841" />
</svg>
